<svg xmlns="http://www.w3.org/2000/svg" width="400" height="400" viewBox="0 0 400 400" role="img" aria-labelledby="title desc"><title id="title">GitHub Manage Security Alerts</title><desc id="desc">A polished security shield with alert rows and a resolved checkmark.</desc><defs><linearGradient id="a" x1="0" y1="0" x2="1" y2="1"><stop offset="0%" stop-color="#0f1b33"/><stop offset="55%" stop-color="#132241"/><stop offset="100%" stop-color="#1d4ed8"/></linearGradient><linearGradient id="e" x1="0" y1="0" x2="0" y2="1"><stop offset="0%" stop-color="#f8fbff"/><stop offset="55%" stop-color="#e0f2fe"/><stop offset="100%" stop-color="#bfdbfe"/></linearGradient><linearGradient id="g" x1="0" y1="0" x2="1" y2="1"><stop offset="0%" stop-color="#fff" stop-opacity=".72"/><stop offset="100%" stop-color="#fff" stop-opacity="0"/></linearGradient><radialGradient id="b" cx="0" cy="0" r="1" gradientUnits="userSpaceOnUse" gradientTransform="rotate(35 -77.692 184.893)scale(170 150)"><stop offset="0%" stop-color="#60a5fa" stop-opacity=".3"/><stop offset="100%" stop-color="#60a5fa" stop-opacity="0"/></radialGradient><radialGradient id="c" cx="0" cy="0" r="1" gradientUnits="userSpaceOnUse" gradientTransform="rotate(25 -561.713 881.713)scale(170)"><stop offset="0%" stop-color="#22c55e" stop-opacity=".18"/><stop offset="100%" stop-color="#22c55e" stop-opacity="0"/></radialGradient><filter id="d" x="-20%" y="-20%" width="140%" height="140%"><feDropShadow dx="0" dy="14" stdDeviation="16" flood-color="#020617" flood-opacity=".3"/></filter><filter id="h" x="-30%" y="-30%" width="160%" height="160%"><feDropShadow dx="0" dy="0" stdDeviation="10" flood-color="#10b981" flood-opacity=".28"/></filter><clipPath id="f"><path d="m200 72 92 38v74c0 76-39 122-92 148-53-26-92-72-92-148v-74z"/></clipPath></defs><rect width="400" height="400" rx="88" fill="url(#a)"/><rect width="400" height="400" rx="88" fill="url(#b)"/><rect width="400" height="400" rx="88" fill="url(#c)"/><g filter="url(#d)"><path d="m200 72 92 38v74c0 76-39 122-92 148-53-26-92-72-92-148v-74z" fill="url(#e)" stroke="#1e293b" stroke-width="14" stroke-linejoin="round"/></g><g clip-path="url(#f)"><path d="m200 72 92 38v24L108 254v-70z" fill="url(#g)"/><path d="M124 122h152" stroke="#93c5fd" stroke-width="10" opacity=".22"/></g><rect x="132" y="146" width="136" height="32" rx="16" fill="#eff6ff"/><rect x="132" y="192" width="136" height="32" rx="16" fill="#eff6ff"/><rect x="148" y="157" width="74" height="10" rx="5" fill="#334155"/><rect x="148" y="203" width="74" height="10" rx="5" fill="#334155"/><circle cx="246" cy="162" r="12" fill="#f43f5e"/><circle cx="246" cy="208" r="12" fill="#f59e0b"/><circle cx="246" cy="162" r="4" fill="#fff" opacity=".92"/><circle cx="246" cy="208" r="4" fill="#fff" opacity=".92"/><g filter="url(#h)"><circle cx="170" cy="274" r="22" fill="#ecfdf5"/><circle cx="170" cy="274" r="18" fill="#d1fae5"/><path d="m156 274 12 12 24-28" fill="none" stroke="#059669" stroke-width="16" stroke-linecap="round" stroke-linejoin="round"/></g><path d="m200 72 92 38v74c0 76-39 122-92 148" fill="none" stroke="#fff" stroke-opacity=".3" stroke-width="6" stroke-linecap="round"/></svg>
